# Blender 4.3.2
# www.blender.org
mtllib Canette_Buborékok.mtl
o Cylindre.001
v 0.000000 0.046155 -0.261936
v 0.000000 0.786762 -0.261936
v 0.181350 0.046155 -0.185217
v 0.181350 0.786762 -0.185217
v 0.256468 0.046155 0.000000
v 0.256468 0.786762 0.000000
v 0.181350 0.046155 0.185217
v 0.181350 0.786762 0.185217
v 0.000000 0.046155 0.261936
v 0.000000 0.786762 0.261936
v -0.181350 0.046155 0.185217
v -0.181350 0.786762 0.185217
v -0.256468 0.046155 0.000000
v -0.256468 0.786762 0.000000
v -0.181350 0.046155 -0.185217
v -0.181350 0.786762 -0.185217
v -0.000000 0.830322 -0.223100
v 0.154462 0.830322 -0.157756
v 0.218442 0.830322 0.000000
v 0.154462 0.830322 0.157756
v -0.000000 0.830322 0.223100
v -0.154462 0.830322 0.157756
v -0.218442 0.830322 0.000000
v -0.154462 0.830322 -0.157756
v 0.000000 -0.000000 -0.223100
v 0.154462 -0.000000 -0.157756
v 0.218442 -0.000000 0.000000
v 0.154462 -0.000000 0.157756
v 0.000000 -0.000000 0.223100
v -0.154462 -0.000000 0.157756
v -0.218442 -0.000000 0.000000
v -0.154462 -0.000000 -0.157756
v 0.000000 0.830322 0.000000
v 0.000000 -0.000000 0.000000
vn 0.3896 -0.0000 -0.9210
vn 0.9267 -0.0000 -0.3758
vn 0.9267 -0.0000 0.3758
vn 0.3896 -0.0000 0.9210
vn -0.3896 -0.0000 0.9210
vn -0.9267 -0.0000 0.3758
vn -0.7205 0.6289 -0.2922
vn -0.9267 -0.0000 -0.3758
vn -0.3896 -0.0000 -0.9210
vn 0.7366 -0.6068 0.2987
vn 0.7205 0.6289 -0.2922
vn -0.3011 0.6346 0.7118
vn -0.3011 0.6346 -0.7118
vn 0.3011 0.6346 -0.7118
vn 0.7205 0.6289 0.2922
vn -0.7205 0.6289 0.2922
vn 0.3011 0.6346 0.7118
vn -0.7366 -0.6068 0.2987
vn 0.3080 -0.6125 0.7280
vn -0.7366 -0.6068 -0.2987
vn 0.7366 -0.6068 -0.2987
vn -0.3080 -0.6125 0.7280
vn -0.3080 -0.6125 -0.7280
vn 0.3080 -0.6125 -0.7280
vn -0.0000 1.0000 -0.0000
vn -0.0000 -1.0000 -0.0000
vt 0.208426 0.536747
vt 0.205665 0.946231
vt 0.135378 0.947011
vt 0.138832 0.535629
vt 0.062313 0.948846
vt 0.066741 0.532808
vt 0.633539 0.534162
vt 0.629210 0.950194
vt 0.557122 0.947432
vt 0.560469 0.536050
vt 0.487511 0.946345
vt 0.490197 0.536859
vt 0.417898 0.946272
vt 0.420214 0.536845
vt 0.346849 0.946405
vt 0.349050 0.536696
vt 0.275669 0.946257
vt 0.346849 0.975437
vt 0.276210 0.975316
vt 0.278018 0.536831
vt 0.559910 0.506527
vt 0.627617 0.503062
vt 0.135895 0.975848
vt 0.068175 0.979242
vt 0.487291 0.975118
vt 0.417346 0.975224
vt 0.205830 0.975251
vt 0.622118 0.979251
vt 0.556396 0.975727
vt 0.349049 0.506979
vt 0.419666 0.507103
vt 0.490017 0.507158
vt 0.278575 0.507200
vt 0.073903 0.503062
vt 0.139606 0.506663
vt 0.208662 0.507301
vt 0.488859 0.336717
vt 0.488859 0.162849
vt 0.695605 0.252868
vt 0.609968 0.461468
vt 0.609968 0.041713
vt 0.781242 0.044269
vt 0.471769 0.342887
vt 0.350660 0.464023
vt 0.179385 0.461467
vt 0.265022 0.252868
vt 0.902351 0.169019
vt 0.902352 0.342887
vt 0.179385 0.041713
vt 0.350659 0.044269
vt 0.058276 0.162849
vt 0.058276 0.336717
vt 0.781243 0.464023
vt 0.471769 0.169019
s 0
usemtl Matériau
f 1/1/1 2/2/1 4/3/1 3/4/1
f 3/4/2 4/3/2 6/5/2 5/6/2
f 5/7/3 6/8/3 8/9/3 7/10/3
f 7/10/4 8/9/4 10/11/4 9/12/4
f 9/12/5 10/11/5 12/13/5 11/14/5
f 11/14/6 12/13/6 14/15/6 13/16/6
f 16/17/7 14/15/7 23/18/7 24/19/7
f 13/16/8 14/15/8 16/17/8 15/20/8
f 15/20/9 16/17/9 2/2/9 1/1/9
f 5/7/10 7/10/10 28/21/10 27/22/10
f 6/5/11 4/3/11 18/23/11 19/24/11
f 12/13/12 10/11/12 21/25/12 22/26/12
f 2/2/13 16/17/13 24/19/13 17/27/13
f 4/3/14 2/2/14 17/27/14 18/23/14
f 8/9/15 6/8/15 19/28/15 20/29/15
f 14/15/16 12/13/16 22/26/16 23/18/16
f 10/11/17 8/9/17 20/29/17 21/25/17
f 11/14/18 13/16/18 31/30/18 30/31/18
f 7/10/19 9/12/19 29/32/19 28/21/19
f 13/16/20 15/20/20 32/33/20 31/30/20
f 3/4/21 5/6/21 27/34/21 26/35/21
f 9/12/22 11/14/22 30/31/22 29/32/22
f 15/20/23 1/1/23 25/36/23 32/33/23
f 1/1/24 3/4/24 26/35/24 25/36/24
f 23/37/25 22/38/25 33/39/25 24/40/25
f 21/41/25 20/42/25 33/39/25 22/38/25
f 28/43/26 29/44/26 30/45/26 34/46/26
f 20/42/25 19/47/25 18/48/25 33/39/25
f 25/49/26 26/50/26 34/46/26 32/51/26
f 31/52/26 32/51/26 34/46/26 30/45/26
f 17/53/25 24/40/25 33/39/25 18/48/25
f 27/54/26 28/43/26 34/46/26 26/50/26
