# Blender v3.2.1 OBJ File: 'gamejam_3d.blend'
# www.blender.org
mtllib ASSET_porte_v2.mtl
o PORTE_Plane.008
v 0.077232 0.000000 0.931650
v 0.077232 4.560493 1.459313
v 0.078633 4.925201 -1.181747
v 0.078633 0.000000 -1.181747
v -0.109315 0.000000 0.931650
v -0.109315 4.560493 1.459313
v -0.107914 4.925201 -1.181747
v -0.107914 0.000000 -1.181747
v -0.213158 1.978627 0.845669
v -0.213158 2.840958 0.990979
v -0.213158 2.137880 0.572381
v -0.213158 2.840958 0.441952
v 0.213158 1.978627 0.845669
v 0.213158 2.840958 0.990979
v 0.213158 2.137880 0.572381
v 0.213158 2.840958 0.441952
v 0.163346 2.503938 0.749092
v 0.163346 2.675433 0.777990
v 0.163346 2.535609 0.694742
v 0.163346 2.675433 0.668803
v 0.397358 2.675433 0.668803
v 0.397358 2.535609 0.694742
v 0.397358 2.503938 0.749092
v 0.397358 2.675433 0.777990
v 0.250738 2.646415 0.674186
v 0.250738 2.564627 0.689359
v 0.351957 2.649435 0.696895
v 0.351957 2.567646 0.712068
v 0.250738 2.543328 0.268216
v 0.250738 2.489315 0.283389
v 0.351957 2.546347 0.290925
v 0.351957 2.492334 0.306098
v -0.180105 2.503938 0.749092
v -0.180105 2.675433 0.777990
v -0.180105 2.535609 0.694742
v -0.180105 2.675433 0.668803
v -0.414117 2.675433 0.668803
v -0.414117 2.535609 0.694742
v -0.414117 2.503938 0.749092
v -0.414117 2.675433 0.777990
v -0.267497 2.646415 0.674186
v -0.267497 2.564627 0.689359
v -0.364132 2.645117 0.689294
v -0.364132 2.563328 0.704467
v -0.267497 2.543328 0.268216
v -0.267497 2.489315 0.283389
v -0.368716 2.546347 0.290925
v -0.368716 2.492334 0.306098
vt 0.984933 0.985947
vt 0.235538 0.985947
vt 0.235538 0.957563
vt 0.984933 0.957563
vt 0.259935 0.507606
vt 0.838268 0.504181
vt 0.838486 0.544646
vt 0.260154 0.548072
vt 0.230454 0.364756
vt 0.931948 0.439297
vt 0.928919 0.467802
vt 0.227425 0.393259
vt 0.718374 0.504891
vt 0.259941 0.507605
vt 0.259674 0.467140
vt 0.718108 0.464425
vt 0.227425 0.040023
vt 0.984203 0.032965
vt 0.235538 0.635998
vt 0.929441 0.555712
vt 0.005015 0.026141
vt 0.201258 0.014152
vt 0.188207 0.136897
vt 0.034122 0.091024
vt 0.118722 0.551260
vt 0.118721 0.445020
vt 0.182060 0.445020
vt 0.182060 0.551260
vt 0.168147 0.270667
vt 0.021132 0.312899
vt 0.009839 0.196001
vt 0.196433 0.209204
vt 0.080497 0.418566
vt 0.080497 0.548490
vt 0.017159 0.548490
vt 0.017159 0.418566
vt 0.017159 0.371573
vt 0.080497 0.371573
vt 0.118721 0.363450
vt 0.182060 0.363450
vt 0.159976 0.686542
vt 0.167116 0.725032
vt 0.137059 0.725032
vt 0.145014 0.677824
vt 0.159958 0.562768
vt 0.189783 0.562818
vt 0.189783 0.627230
vt 0.159958 0.627181
vt 0.066336 0.627200
vt 0.105477 0.627186
vt 0.097354 0.651241
vt 0.074459 0.651249
vt 0.066336 0.562768
vt 0.114210 0.562768
vt 0.114210 0.627186
vt 0.066336 0.627186
vt 0.167116 0.677955
vt 0.180236 0.677824
vt 0.180236 0.742238
vt 0.167116 0.742369
vt 0.137059 0.562768
vt 0.159958 0.562768
vt 0.159958 0.676429
vt 0.144577 0.677824
vt 0.105477 0.691590
vt 0.096928 0.678962
vt 0.066336 0.691603
vt 0.074032 0.678970
vt 0.121659 0.678282
vt 0.137059 0.678069
vt 0.137059 0.705794
vt 0.121659 0.706006
vt 0.010600 0.569028
vt 0.038470 0.562768
vt 0.038470 0.677179
vt 0.010600 0.683439
vt 0.114209 0.564261
vt 0.137059 0.562768
vt 0.121620 0.677680
vt 0.038470 0.562768
vt 0.066336 0.569066
vt 0.066336 0.682727
vt 0.038470 0.676429
vt 0.138126 0.899495
vt 0.156067 0.892728
vt 0.156067 0.945741
vt 0.123247 0.940211
vt 0.156067 0.961342
vt 0.156067 0.890022
vt 0.189100 0.889944
vt 0.189100 0.961264
vt 0.121096 0.836383
vt 0.112101 0.863023
vt 0.086746 0.863024
vt 0.077751 0.836386
vt 0.077751 0.836383
vt 0.077751 0.765050
vt 0.130764 0.765050
vt 0.130764 0.836383
vt 0.181424 0.836360
vt 0.181424 0.765050
vt 0.195998 0.765369
vt 0.195998 0.836679
vt 0.156067 0.889944
vt 0.163520 0.765050
vt 0.180552 0.766594
vt 0.181424 0.889944
vt 0.088033 0.892503
vt 0.077751 0.907718
vt 0.121096 0.907715
vt 0.113388 0.892502
vt 0.046822 0.925925
vt 0.046822 0.895032
vt 0.063870 0.895286
vt 0.063870 0.926179
vt 0.017293 0.891710
vt 0.015882 0.765050
vt 0.046822 0.771614
vt 0.046822 0.895832
vt 0.130764 0.891075
vt 0.138970 0.765480
vt 0.156067 0.765050
vt 0.156067 0.892728
vt 0.077751 0.765050
vt 0.077751 0.888404
vt 0.046822 0.895032
vt 0.048224 0.769178
vn 0.0000 0.0000 -1.0000
vn 0.0000 0.9906 0.1368
vn 0.0000 -0.1149 0.9934
vn 0.0000 -1.0000 0.0000
vn 1.0000 -0.0000 0.0006
vn -1.0000 0.0000 -0.0006
vn -1.0000 0.0000 0.0000
vn 0.0000 -0.1824 -0.9832
vn 1.0000 0.0000 0.0000
vn 0.0000 -0.1662 0.9861
vn 0.0000 -0.8640 -0.5035
vn 0.0000 1.0000 0.0000
vn 0.0635 -0.4829 -0.8734
vn 0.0655 0.1480 -0.9868
vn -0.4500 -0.1629 -0.8780
vn 0.2186 -0.2639 -0.9394
vn 0.0263 0.9689 -0.2460
vn -0.0116 -0.9832 0.1824
vn -0.9999 0.0025 0.0110
vn -0.0408 -0.3777 -0.9250
vn -0.0458 0.0462 -0.9979
vn 0.2807 -0.1751 -0.9437
vn -0.2186 -0.2639 -0.9394
vn -0.0380 0.9693 -0.2430
vn 0.0256 -0.9836 0.1788
usemtl portte
s off
f 3/1/1 4/2/1 8/3/1 7/4/1
f 2/5/2 3/6/2 7/7/2 6/8/2
f 1/9/3 2/10/3 6/11/3 5/12/3
f 4/13/4 1/14/4 5/15/4 8/16/4
f 1/9/5 4/17/5 3/18/5 2/10/5
f 5/19/6 6/20/6 7/4/6 8/3/6
f 9/21/7 10/22/7 12/23/7 11/24/7
f 11/25/8 12/26/8 16/27/8 15/28/8
f 15/29/9 16/30/9 14/31/9 13/32/9
f 13/33/10 14/34/10 10/35/10 9/36/10
f 11/37/11 15/38/11 13/33/11 9/36/11
f 16/27/12 12/26/12 10/39/12 14/40/12
f 22/41/9 21/42/9 24/43/9 23/44/9
f 20/45/12 18/46/12 24/47/12 21/48/12
f 19/49/8 20/50/8 25/51/8 26/52/8
f 18/53/10 17/54/10 23/55/10 24/56/10
f 17/57/11 19/58/11 22/59/11 23/60/11
f 27/61/9 28/62/9 32/63/9 31/64/9
f 20/50/13 21/65/13 27/66/13 25/51/13
f 22/67/14 19/49/14 26/52/14 28/68/14
f 21/65/15 22/67/15 28/68/15 27/66/15
f 30/69/16 29/70/16 31/71/16 32/72/16
f 25/73/17 27/74/17 31/75/17 29/76/17
f 26/77/7 25/78/7 29/70/7 30/79/7
f 28/80/18 26/81/18 30/82/18 32/83/18
f 38/84/7 39/85/7 40/86/7 37/87/7
f 36/88/12 37/89/12 40/90/12 34/91/12
f 35/92/8 42/93/8 41/94/8 36/95/8
f 34/96/10 40/97/10 39/98/10 33/99/10
f 33/100/11 39/101/11 38/102/11 35/103/11
f 43/104/19 47/105/19 48/106/19 44/107/19
f 36/95/20 41/94/20 43/108/20 37/109/20
f 38/110/21 44/111/21 42/93/21 35/92/21
f 37/109/22 43/108/22 44/111/22 38/110/22
f 46/112/23 48/113/23 47/114/23 45/115/23
f 41/116/24 45/117/24 47/118/24 43/119/24
f 42/120/9 46/121/9 45/122/9 41/123/9
f 44/124/25 48/125/25 46/126/25 42/127/25
