# Blender v3.2.1 OBJ File: ''
# www.blender.org
mtllib ASSET_Machine_test.mtl
o Cube_Cube.001
v 1.500000 5.165117 -1.000000
v 1.500000 0.100000 -1.000000
v 1.500000 0.100000 1.000000
v -1.500000 5.165117 -1.000000
v -1.500000 0.100000 -1.000000
v 1.500000 5.165117 1.000000
v -1.500000 5.165117 1.000000
v -1.500000 0.100000 1.000000
v 1.218936 -0.021876 0.812624
v 1.218936 -0.021876 -0.812624
v -1.218936 5.286986 -0.812624
v 1.218936 5.286986 -0.812624
v -1.218936 -0.021876 -0.812624
v 1.218936 5.286986 0.812624
v -1.218936 5.286986 0.812624
v -1.218936 -0.021876 0.812624
vt 0.625000 0.500000
vt 0.625000 0.750000
vt 0.625000 0.750000
vt 0.625000 0.500000
vt 0.375000 0.750000
vt 0.375000 0.500000
vt 0.375000 0.500000
vt 0.375000 0.750000
vt 0.375000 0.750000
vt 0.625000 0.750000
vt 0.625000 1.000000
vt 0.375000 1.000000
vt 0.125000 0.500000
vt 0.125000 0.750000
vt 0.875000 0.500000
vt 0.875000 0.750000
vt 0.375000 0.500000
vt 0.625000 0.500000
vt 0.625000 0.750000
vt 0.375000 0.750000
vt 0.375000 0.000000
vt 0.625000 0.000000
vt 0.625000 0.250000
vt 0.375000 0.250000
vt 0.375000 1.000000
vt 0.375000 0.750000
vt 0.625000 0.750000
vt 0.625000 1.000000
vt 0.375000 0.750000
vt 0.375000 0.500000
vt 0.625000 0.500000
vt 0.625000 0.750000
vt 0.125000 0.750000
vt 0.125000 0.500000
vt 0.875000 0.500000
vt 0.875000 0.750000
vn -0.3978 -0.9175 0.0000
vn 0.0000 0.8383 -0.5452
vn 1.0000 0.0000 0.0000
vn 0.0000 0.0000 -1.0000
vn -1.0000 0.0000 0.0000
vn 0.0000 0.0000 1.0000
vn 0.0000 1.0000 0.0000
vn 0.3978 -0.9175 0.0000
vn 0.3978 0.9175 0.0000
vn 0.0000 -0.8383 0.5452
vn 0.0000 0.8383 0.5452
vn 0.0000 -0.8383 -0.5452
vn -0.3978 0.9175 0.0000
usemtl None
s off
f 8/1/1 5/2/1 13/3/1 16/4/1
f 1/5/2 4/6/2 11/7/2 12/8/2
f 2/9/3 1/10/3 6/11/3 3/12/3
f 5/13/4 4/6/4 1/5/4 2/14/4
f 8/1/5 7/15/5 4/16/5 5/2/5
f 3/17/6 6/18/6 7/19/6 8/20/6
f 12/21/7 11/22/7 15/23/7 14/24/7
f 2/9/8 3/12/8 9/25/8 10/26/8
f 6/11/9 1/10/9 12/27/9 14/28/9
f 3/17/10 8/20/10 16/29/10 9/30/10
f 7/19/11 6/18/11 14/31/11 15/32/11
f 5/13/12 2/14/12 10/33/12 13/34/12
f 4/16/13 7/15/13 15/35/13 11/36/13
o Plane_Plane.001
v -2.000000 0.000000 2.000000
v 2.000000 0.000000 2.000000
v -2.000000 0.000000 -2.000000
v 2.000000 0.000000 -2.000000
vt 0.000000 0.000000
vt 1.000000 0.000000
vt 1.000000 1.000000
vt 0.000000 1.000000
vn 0.0000 1.0000 0.0000
usemtl None
s off
f 17/37/14 18/38/14 20/39/14 19/40/14
o Cube.001_Cube.004
v 1.500000 5.165117 -1.000000
v 1.500000 0.100000 -1.000000
v 1.500000 0.100000 1.000000
v -1.500000 5.165117 -1.000000
v -1.500000 0.100000 -1.000000
v 1.500000 5.165117 1.000000
v -1.500000 5.165117 1.000000
v -1.500000 0.100000 1.000000
v 1.218936 -0.021876 0.812624
v 1.218936 -0.021876 -0.812624
v -1.218936 5.286986 -0.812624
v 1.218936 5.286986 -0.812624
v -1.218936 -0.021876 -0.812624
v 1.218936 5.286986 0.812624
v -1.218936 5.286986 0.812624
v -1.218936 -0.021876 0.812624
v 1.098969 2.183672 1.009015
v 1.098969 3.786928 1.009015
v -1.098969 3.786928 1.009015
v -1.098969 2.183672 1.009015
v 1.098969 3.786928 1.209923
v -1.098969 3.786928 1.209923
v -1.098969 2.183672 1.209923
v 1.098969 2.183672 1.209923
v 0.904949 3.372755 1.198487
v -0.904949 3.372755 1.198487
v -0.904949 2.325197 1.198487
v 0.904949 2.325197 1.198487
v 0.904949 3.372755 1.011130
v -0.904949 3.372755 1.011130
v -0.904949 2.325197 1.011130
v 0.904949 2.325197 1.011130
v -1.259680 2.421217 0.994325
v -1.259680 3.549382 0.994325
v 1.259680 3.549382 0.994325
v 1.259680 2.421217 0.994325
v -1.259680 2.421217 1.224614
v -1.259680 3.549382 1.224614
v 1.259680 3.549382 1.224614
v 1.259680 2.421217 1.224614
vt 0.625000 0.500000
vt 0.625000 0.750000
vt 0.625000 0.750000
vt 0.625000 0.500000
vt 0.375000 0.750000
vt 0.375000 0.500000
vt 0.375000 0.500000
vt 0.375000 0.750000
vt 0.375000 0.750000
vt 0.625000 0.750000
vt 0.625000 1.000000
vt 0.375000 1.000000
vt 0.125000 0.500000
vt 0.125000 0.750000
vt 0.875000 0.500000
vt 0.875000 0.750000
vt 0.375000 0.500000
vt 0.625000 0.500000
vt 0.625000 0.750000
vt 0.375000 0.750000
vt 0.375000 0.000000
vt 0.625000 0.000000
vt 0.625000 0.250000
vt 0.375000 0.250000
vt 0.375000 1.000000
vt 0.375000 0.750000
vt 0.625000 0.750000
vt 0.625000 1.000000
vt 0.375000 0.750000
vt 0.375000 0.500000
vt 0.625000 0.500000
vt 0.625000 0.750000
vt 0.125000 0.750000
vt 0.125000 0.500000
vt 0.875000 0.500000
vt 0.875000 0.750000
vt 0.375000 0.750000
vt 0.375000 0.500000
vt 0.375000 0.500000
vt 0.375000 0.750000
vt 0.375000 0.750000
vt 0.375000 0.500000
vt 0.625000 0.500000
vt 0.625000 0.750000
vt 0.625000 0.750000
vt 0.625000 0.500000
vt 0.375000 0.500000
vt 0.625000 0.500000
vt 0.375000 0.750000
vt 0.375000 0.750000
vt 0.625000 0.500000
vt 0.625000 0.500000
vt 0.375000 0.500000
vt 0.625000 0.750000
vt 0.375000 0.750000
vt 0.625000 0.750000
vt 0.375000 0.500000
vt 0.625000 0.500000
vt 0.625000 0.750000
vt 0.625000 0.750000
vt 0.000000 0.000000
vt 0.000000 0.000000
vt 0.000000 0.000000
vt 0.000000 0.000000
vt 0.000000 0.000000
vt 0.000000 0.000000
vt 0.000000 0.000000
vt 0.000000 0.000000
vn -0.3978 -0.9175 0.0000
vn 0.0000 0.8383 -0.5452
vn 1.0000 0.0000 0.0000
vn 0.0000 0.0000 -1.0000
vn -1.0000 0.0000 0.0000
vn 0.0000 0.0000 1.0000
vn 0.0000 1.0000 0.0000
vn 0.3978 -0.9175 0.0000
vn 0.3978 0.9175 0.0000
vn 0.0000 -0.8383 0.5452
vn 0.0000 0.8383 0.5452
vn 0.0000 -0.8383 -0.5452
vn -0.3978 0.9175 0.0000
vn 0.0000 0.0805 0.9968
vn 0.0000 -1.0000 0.0000
vn -0.0910 0.0000 0.9958
vn -0.8283 -0.5604 0.0000
vn 0.0000 -0.0276 0.9996
vn -0.0588 0.0000 0.9983
vn 0.0588 0.0000 0.9983
vn 0.0910 0.0000 0.9958
vn -0.0910 0.0000 -0.9958
vn 0.0910 0.0000 -0.9958
vn -0.8283 0.5604 0.0000
vn 0.8283 -0.5604 0.0000
vn 0.8283 0.5604 0.0000
usemtl None
s off
f 28/41/15 25/42/15 33/43/15 36/44/15
f 21/45/16 24/46/16 31/47/16 32/48/16
f 22/49/17 21/50/17 26/51/17 23/52/17
f 25/53/18 24/46/18 21/45/18 22/54/18
f 28/41/19 27/55/19 24/56/19 25/42/19
f 23/57/20 26/58/20 27/59/20 28/60/20
f 32/61/21 31/62/21 35/63/21 34/64/21
f 22/49/22 23/52/22 29/65/22 30/66/22
f 26/51/23 21/50/23 32/67/23 34/68/23
f 23/57/24 28/60/24 36/69/24 29/70/24
f 27/59/25 26/58/25 34/71/25 35/72/25
f 25/53/26 22/54/26 30/73/26 33/74/26
f 24/56/27 27/55/27 35/75/27 31/76/27
f 43/77/28 44/78/28 48/79/28 47/80/28
f 40/81/29 37/82/29 44/78/29 43/77/29
f 38/83/21 39/84/21 42/85/21 41/86/21
f 41/86/30 44/78/30 60/87/30 59/88/30
f 40/81/31 43/77/31 57/89/31 53/90/31
f 48/79/19 45/91/19 49/92/19 52/93/19
f 41/86/32 42/85/32 46/94/32 45/91/32
f 44/78/33 41/86/33 45/91/33 48/79/33
f 42/85/34 43/77/34 47/80/34 46/94/34
f 46/94/17 47/80/17 51/95/17 50/96/17
f 47/80/21 48/79/21 52/93/21 51/95/21
f 45/91/29 46/94/29 50/96/29 49/92/29
f 56/97/17 55/98/17 59/88/17 60/87/17
f 54/99/19 53/90/19 57/89/19 58/100/19
f 43/77/35 42/85/35 58/100/35 57/89/35
f 37/101/36 38/102/36 55/103/36 56/104/36
f 39/105/37 40/106/37 53/107/37 54/108/37
f 42/85/38 39/84/38 54/99/38 58/100/38
f 44/78/39 37/82/39 56/97/39 60/87/39
f 38/83/40 41/86/40 59/88/40 55/98/40
