# Blender v3.2.1 OBJ File: 'gamejam_3d.blend'
# www.blender.org
mtllib ASSET_mur_pilier.mtl
o MUR_PILIER_Plane.009
v -0.500000 6.000000 -0.500000
v -0.500000 0.000000 -0.500000
v -0.500000 6.000000 0.500000
v -0.500000 0.000000 0.500000
v 0.500000 0.000000 0.500000
v 0.500000 6.000000 0.500000
v 0.500000 0.000000 -0.500000
v 0.500000 6.000000 -0.500000
vt 0.639688 0.000000
vt 0.639688 0.750000
vt 0.503966 0.750000
vt 0.503966 0.000000
vt 0.216616 0.000000
vt 0.216616 0.750000
vt 0.073917 0.750000
vt 0.073917 0.000000
vt 0.359314 0.000000
vt 0.359314 0.750000
vt 0.216616 0.750000
vt 0.216616 0.000000
vt 0.503966 0.000000
vt 0.503966 0.750000
vt 0.359314 0.750000
vt 0.359314 0.000000
vn -1.0000 0.0000 0.0000
vn 0.0000 0.0000 -1.0000
vn 1.0000 0.0000 0.0000
vn 0.0000 0.0000 1.0000
usemtl MUR.001
s off
f 4/1/1 3/2/1 1/3/1 2/4/1
f 2/5/2 1/6/2 8/7/2 7/8/2
f 7/9/3 8/10/3 6/11/3 5/12/3
f 5/13/4 6/14/4 3/15/4 4/16/4
