# Blender v3.2.1 OBJ File: 'gamejam_3d.blend'
# www.blender.org
mtllib ASSET_plante.mtl
o PLANTE_Cube
v -0.160975 0.000000 0.224913
v -0.480143 0.951229 0.652726
v -0.274178 -0.000000 -0.283913
v -0.705810 1.440578 -0.539629
v 0.344559 -0.000000 0.290273
v 0.715781 1.090845 0.829543
v 0.257215 -0.000000 -0.247044
v 0.632677 1.483852 -0.628727
v -0.367449 1.013233 0.486677
v -0.489478 1.422116 -0.363028
v 0.478519 1.413105 -0.452274
v 0.540911 1.118051 0.642538
v -0.308020 0.694485 0.376464
v -0.417752 1.093821 -0.432584
v 0.506286 1.078606 -0.521848
v 0.566220 0.795174 0.529839
v -0.106182 3.600890 -0.131683
v 0.144172 0.733441 -0.265512
v 0.137885 3.753620 0.337450
v -0.026520 4.105131 0.097828
v 0.278328 0.733441 0.271221
v -0.057739 3.497315 -0.061077
v -0.253574 0.733441 0.119037
v -0.184647 3.524203 -0.059003
v -0.292815 3.844872 0.344489
v -0.138695 2.464772 -0.562163
v -0.164500 2.544051 -0.258873
v -0.344957 2.505560 -0.420816
v -1.342477 3.118213 -0.463567
v -1.343637 3.296938 -0.220467
v -1.088539 3.554905 -0.919919
v -0.174995 3.767209 0.137084
v 0.370447 2.744464 0.758716
v 0.544803 2.963582 0.839989
v -0.335166 2.888059 1.139387
v -0.042905 3.718085 0.188997
v 0.891551 3.368704 -1.012901
v 0.732505 3.624119 -1.017495
v 1.273064 3.537118 -0.504968
v -0.026465 3.838754 0.201128
vt 0.054250 0.223107
vt 0.296823 0.212083
vt 0.311282 0.379895
vt 0.019044 0.390324
vt 0.349924 0.508096
vt 0.003391 0.573714
vt 0.472983 0.707884
vt 0.084742 0.718628
vt 0.035899 0.073215
vt 0.384860 0.010242
vt 0.400974 0.069198
vt 0.321534 0.224230
vt 0.674573 0.340999
vt 0.431626 0.449377
vt 0.468297 0.362114
vt 0.573023 0.297546
vt 0.348033 0.372611
vt 0.370815 0.500237
vt 0.480834 0.645403
vt 0.957384 0.011507
vt 0.957384 0.260948
vt 0.713417 0.250747
vt 0.664347 0.015828
vt 0.561853 0.093940
vt 0.534694 0.175075
vt 0.342149 0.202609
vt 0.443316 0.240923
vt 0.694369 0.988028
vt 0.354354 0.895104
vt 0.365611 0.853668
vt 0.691088 0.887451
vt 0.372375 0.808418
vt 0.125132 0.830416
vt 0.138436 0.803566
vt 0.345463 0.755353
vt 0.135071 0.857326
vt 0.145486 0.887038
vt 0.073899 0.959423
vt 0.024023 0.899832
vt 0.683477 0.778943
vt 0.741565 0.806908
vt 0.941753 0.895222
vt 0.796986 0.990750
vt 0.020550 0.797668
vt 0.056143 0.719485
vt 0.694369 0.677465
vt 0.943506 0.533281
vt 0.993522 0.410744
vt 0.993522 0.563933
vt 0.782418 0.647891
vt 0.840516 0.639781
vt 0.980545 0.852394
vt 0.980545 0.577662
vt 0.720185 0.764699
vt 0.994825 0.364573
vt 0.935497 0.511392
vt 0.949429 0.330621
vt 0.829186 0.363642
vt 0.885226 0.355106
vt 0.925641 0.576369
vt 0.709975 0.640236
vt 0.702817 0.459071
vt 0.772868 0.296560
vt 0.900384 0.304614
vt 0.763295 0.354276
vt 0.559864 0.638222
vt 0.530844 0.593220
vt 0.676366 0.379808
vt 0.435890 0.499446
vt 0.676366 0.648400
vt 0.416082 0.030522
vt 0.506565 -0.005665
vt 0.563688 0.075916
vt 0.475200 0.105352
vn -0.9471 -0.3046 0.1011
vn -0.0223 -0.2133 -0.9767
vn 0.9539 -0.2684 -0.1343
vn -0.0934 -0.4242 0.9007
vn -0.1528 0.9514 0.2673
vn 0.0898 -0.1917 0.9773
vn 0.0045 0.9697 0.2442
vn -0.1348 0.9548 0.2650
vn -0.1323 0.8988 0.4179
vn -0.0569 0.9356 0.3485
vn -0.9955 -0.0894 0.0326
vn 0.9775 0.2079 -0.0353
vn 0.1225 0.3401 -0.9324
vn -0.4041 0.2059 0.8912
vn 0.9969 -0.0474 -0.0634
vn -0.1585 -0.7932 0.5879
vn -0.6464 -0.2418 -0.7237
vn 0.1403 0.6017 0.7863
vn -0.4477 -0.1875 0.8743
vn -0.7974 0.3498 -0.4918
vn 0.8732 0.0808 -0.4806
vn -0.5942 0.3239 -0.7362
vn 0.9758 0.1669 -0.1416
vn 0.9261 -0.3019 0.2264
vn -0.1413 0.7973 -0.5868
vn 0.4138 -0.8927 -0.1783
vn -0.5885 0.7221 0.3636
vn -0.3124 0.5388 -0.7824
vn -0.6049 0.1950 0.7721
vn -0.1690 -0.7160 -0.6773
vn 0.4739 0.5859 0.6574
vn -0.6633 -0.4017 0.6314
vn 0.7759 0.4903 0.3969
vn -0.2017 -0.9783 0.0467
vn 0.0347 0.9405 -0.3379
vn -0.0000 -1.0000 0.0000
usemtl plante
s off
f 1/1/1 2/2/1 4/3/1 3/4/1
f 3/4/2 4/3/2 8/5/2 7/6/2
f 7/6/3 8/5/3 6/7/3 5/8/3
f 5/9/4 6/10/4 2/2/4 1/1/4
f 2/2/5 6/10/5 12/11/5 9/12/5
f 11/13/6 10/14/6 14/15/6 15/16/6
f 8/5/7 4/3/7 10/17/7 11/18/7
f 6/7/8 8/5/8 11/18/8 12/19/8
f 4/3/9 2/2/9 9/12/9 10/17/9
f 15/20/10 14/21/10 13/22/10 16/23/10
f 12/24/11 11/13/11 15/16/11 16/25/11
f 10/14/12 9/26/12 13/27/12 14/15/12
f 9/26/13 12/24/13 16/25/13 13/27/13
f 21/28/14 27/29/14 28/30/14 23/31/14
f 26/32/15 17/33/15 22/34/15 27/35/15
f 24/36/16 22/37/16 19/38/16 25/39/16
f 23/31/17 28/30/17 26/32/17 18/40/17
f 19/41/18 20/42/18 25/43/18
f 27/29/19 22/37/19 24/36/19 28/30/19
f 17/33/20 24/36/20 25/39/20 20/44/20
f 22/34/21 17/33/21 20/44/21 19/45/21
f 28/30/22 24/36/22 17/33/22 26/32/22
f 18/40/23 26/32/23 27/35/23 21/46/23
f 29/47/24 31/48/24 30/49/24
f 29/50/25 30/51/25 32/52/25
f 30/51/26 31/53/26 32/52/26
f 31/54/27 29/50/27 32/52/27
f 33/55/28 35/56/28 34/57/28
f 33/58/29 34/59/29 36/60/29
f 34/61/30 35/62/30 36/60/30
f 35/62/31 33/58/31 36/60/31
f 37/63/32 39/64/32 38/65/32
f 37/66/33 38/67/33 40/68/33
f 38/67/34 39/69/34 40/68/34
f 39/70/35 37/66/35 40/68/35
f 3/71/36 7/72/36 5/73/36 1/74/36
