# Blender v3.2.1 OBJ File: 'gamejam_3d.blend'
# www.blender.org
mtllib ASSET_pouf_v1.mtl
o POUFE_Cylinder.001
v -0.000000 0.150481 -0.786928
v -0.000000 0.825135 -0.786928
v 0.389529 0.150481 -0.681499
v 0.389529 0.609363 -0.681499
v 0.674684 0.150481 -0.393464
v 0.674684 0.602195 -0.393464
v 0.779058 0.150481 0.000000
v 0.779058 0.602195 0.000000
v 0.674684 0.150481 0.393464
v 0.674684 0.602195 0.393464
v 0.389529 0.150481 0.681499
v 0.389529 0.609363 0.681499
v -0.000000 0.150481 0.786928
v -0.000000 0.825135 0.786928
v -0.389529 0.150481 0.681499
v -0.389529 1.086389 0.681499
v -0.674684 0.151647 0.393464
v -0.674684 1.430183 0.393464
v -0.779058 0.154952 -0.000000
v -0.779058 1.554762 -0.000000
v -0.674684 0.151647 -0.393464
v -0.674684 1.430183 -0.393464
v -0.389529 0.150481 -0.681499
v -0.389529 1.086389 -0.681499
v -0.000000 0.597952 0.000000
v 0.198501 0.597952 -0.347287
v 0.315684 0.634723 -0.552303
v -0.000000 0.837341 -0.637745
v -0.000000 0.597952 -0.401012
v 0.343814 0.597952 -0.200506
v 0.546780 0.597952 -0.318872
v 0.397002 0.597952 0.000000
v 0.631368 0.597952 0.000000
v 0.343814 0.597952 0.200506
v 0.546780 0.597952 0.318873
v 0.198501 0.597952 0.347287
v 0.315684 0.634723 0.552303
v -0.000000 0.597952 0.401012
v -0.000000 0.837341 0.637745
v -0.198501 0.597952 0.347287
v -0.315684 1.038509 0.552303
v -0.343814 0.597952 0.200506
v -0.546780 1.427433 0.318872
v -0.397002 0.597952 0.000000
v -0.631368 1.554762 -0.000000
v -0.343814 0.597952 -0.200506
v -0.546780 1.427433 -0.318872
v -0.198501 0.597952 -0.347287
v -0.315684 1.038509 -0.552303
v -0.000000 -0.000401 -0.556652
v 0.275542 -0.000401 -0.482074
v 0.477254 -0.000401 -0.278326
v 0.551085 -0.000401 0.000000
v 0.477254 -0.000401 0.278326
v 0.275543 -0.000401 0.482074
v -0.000000 -0.000401 0.556652
v -0.275543 -0.000401 0.482074
v -0.477254 0.000424 0.278326
v -0.551085 0.002762 -0.000000
v -0.477254 0.000424 -0.278326
v -0.275543 -0.000401 -0.482074
vt 0.466931 0.733956
vt 0.524860 0.581555
vt 0.587354 0.615216
vt 0.610568 0.736581
vt 0.655778 0.592337
vt 0.727491 0.673680
vt 0.691219 0.534955
vt 0.793249 0.567968
vt 0.687805 0.470091
vt 0.793218 0.442698
vt 0.644790 0.417884
vt 0.726269 0.332486
vt 0.577398 0.411634
vt 0.612342 0.264656
vt 0.530733 0.434587
vt 0.479935 0.253405
vt 0.506253 0.461009
vt 0.356440 0.300604
vt 0.497853 0.478726
vt 0.271910 0.401716
vt 0.494398 0.498034
vt 0.267419 0.536062
vt 0.557239 0.497431
vt 0.563015 0.484589
vt 0.588690 0.507012
vt 0.498834 0.534382
vt 0.339134 0.659289
vt 0.467635 0.118539
vt 0.661783 0.122805
vt 0.592137 0.465440
vt 0.616292 0.470553
vt 0.573761 0.473115
vt 0.633493 0.492051
vt 0.665117 0.478858
vt 0.631769 0.439390
vt 0.634467 0.520502
vt 0.618200 0.543909
vt 0.591974 0.553156
vt 0.536622 0.566917
vt 0.588060 0.588870
vt 0.557230 0.527079
vt 0.554747 0.511353
vt 0.513033 0.531768
vt 0.568456 0.544025
vt 0.512699 0.465579
vt 0.504661 0.480896
vt 0.578833 0.429582
vt 0.639715 0.572681
vt 0.667744 0.529262
vt 0.502266 0.498039
vt 0.540604 0.444626
vt 0.840818 0.224260
vt 0.949197 0.404597
vt 0.949197 0.616959
vt 0.413487 0.906379
vt 0.204879 0.790804
vt 0.644839 0.908111
vt 0.838615 0.800838
vt 0.068690 0.584903
vt 0.045881 0.312317
vt 0.258859 0.150471
vn 0.2613 0.0000 -0.9653
vn 0.7107 0.0000 -0.7035
vn 0.9666 0.0000 -0.2564
vn 0.9666 0.0000 0.2564
vn 0.7107 0.0000 0.7035
vn 0.2613 0.0000 0.9653
vn -0.2613 0.0000 0.9653
vn -0.7107 0.0000 0.7035
vn -0.9666 0.0000 0.2564
vn -0.9666 0.0000 -0.2564
vn 0.0000 1.0000 0.0000
vn -0.7107 0.0000 -0.7035
vn -0.2613 0.0000 -0.9653
vn -0.1467 -0.8274 0.5421
vn 0.0945 0.9955 0.0096
vn 0.5065 0.8620 0.0180
vn 0.5412 0.8401 -0.0359
vn 0.0933 0.9462 0.3099
vn 0.5065 0.8620 -0.0180
vn -0.0287 0.9996 0.0076
vn 0.0933 0.9462 -0.3099
vn 0.5412 0.8401 0.0359
vn -0.0287 0.9996 -0.0076
vn 0.5859 0.7015 -0.4057
vn 0.0945 0.9955 -0.0096
vn 0.5859 0.7015 0.4057
vn 0.1709 0.8145 0.5545
vn -0.0085 0.9945 0.1046
vn -0.0085 0.9945 -0.1046
vn 0.1709 0.8145 -0.5545
vn 0.4111 0.5454 -0.7304
vn 0.8172 0.3269 -0.4747
vn 0.9502 0.2454 -0.1919
vn 0.9502 0.2454 0.1919
vn 0.8172 0.3269 0.4747
vn 0.4111 0.5454 0.7304
vn 0.1467 -0.8274 0.5421
vn 0.4003 -0.8262 0.3963
vn 0.5461 -0.8251 0.1449
vn -0.1467 -0.8274 -0.5421
vn 0.1467 -0.8274 -0.5421
vn 0.5461 -0.8251 -0.1449
vn -0.4023 -0.8259 -0.3949
vn 0.4003 -0.8262 -0.3963
vn -0.5498 -0.8236 -0.1389
vn -0.5498 -0.8236 0.1389
vn -0.4023 -0.8259 0.3949
usemtl poufe
s off
f 1/1/1 2/2/1 4/3/1 3/4/1
f 3/4/2 4/3/2 6/5/2 5/6/2
f 5/6/3 6/5/3 8/7/3 7/8/3
f 7/8/4 8/7/4 10/9/4 9/10/4
f 9/10/5 10/9/5 12/11/5 11/12/5
f 11/12/6 12/11/6 14/13/6 13/14/6
f 13/14/7 14/13/7 16/15/7 15/16/7
f 15/16/8 16/15/8 18/17/8 17/18/8
f 17/18/9 18/17/9 20/19/9 19/20/9
f 19/20/10 20/19/10 22/21/10 21/22/10
f 44/23/11 42/24/11 25/25/11
f 21/22/12 22/21/12 24/26/12 23/27/12
f 23/27/13 24/26/13 2/2/13 1/1/13
f 13/14/14 15/16/14 57/28/14 56/29/14
f 38/30/11 36/31/11 25/25/11
f 42/24/11 40/32/11 25/25/11
f 40/32/11 38/30/11 25/25/11
f 36/31/11 34/33/11 25/25/11
f 12/11/15 10/9/15 35/34/15 37/35/15
f 32/36/11 30/37/11 25/25/11
f 30/37/11 26/38/11 25/25/11
f 34/33/11 32/36/11 25/25/11
f 4/3/16 2/2/16 28/39/16 27/40/16
f 48/41/11 46/42/11 25/25/11
f 46/42/11 44/23/11 25/25/11
f 2/2/17 24/26/17 49/43/17 28/39/17
f 29/44/11 48/41/11 25/25/11
f 20/19/18 18/17/18 43/45/18 45/46/18
f 14/13/19 12/11/19 37/35/19 39/47/19
f 8/7/20 6/5/20 31/48/20 33/49/20
f 22/21/21 20/19/21 45/46/21 47/50/21
f 16/15/22 14/13/22 39/47/22 41/51/22
f 10/9/23 8/7/23 33/49/23 35/34/23
f 24/26/24 22/21/24 47/50/24 49/43/24
f 6/5/25 4/3/25 27/40/25 31/48/25
f 18/17/26 16/15/26 41/51/26 43/45/26
f 27/40/27 28/39/27 29/44/27 26/38/27
f 31/48/28 27/40/28 26/38/28 30/37/28
f 33/49/11 31/48/11 30/37/11 32/36/11
f 35/34/11 33/49/11 32/36/11 34/33/11
f 37/35/29 35/34/29 34/33/29 36/31/29
f 39/47/30 37/35/30 36/31/30 38/30/30
f 41/51/31 39/47/31 38/30/31 40/32/31
f 43/45/32 41/51/32 40/32/32 42/24/32
f 45/46/33 43/45/33 42/24/33 44/23/33
f 47/50/34 45/46/34 44/23/34 46/42/34
f 49/43/35 47/50/35 46/42/35 48/41/35
f 28/39/36 49/43/36 48/41/36 29/44/36
f 26/38/11 29/44/11 25/25/11
f 11/12/37 13/14/37 56/29/37 55/52/37
f 9/10/38 11/12/38 55/52/38 54/53/38
f 7/8/39 9/10/39 54/53/39 53/54/39
f 23/27/40 1/1/40 50/55/40 61/56/40
f 1/1/41 3/4/41 51/57/41 50/55/41
f 5/6/42 7/8/42 53/54/42 52/58/42
f 21/22/43 23/27/43 61/56/43 60/59/43
f 3/4/44 5/6/44 52/58/44 51/57/44
f 19/20/45 21/22/45 60/59/45 59/60/45
f 17/18/46 19/20/46 59/60/46 58/61/46
f 15/16/47 17/18/47 58/61/47 57/28/47
