# Blender v3.2.1 OBJ File: 'gamejam_3d.blend'
# www.blender.org
mtllib ASSET_mur_cadreporte.mtl
o CADRE_DE_PORTE_Plane.001
v 0.170150 0.000000 1.132637
v 0.172508 0.000000 -1.435707
v 0.170150 4.785003 1.766248
v 0.172508 5.222941 -1.435707
v -0.203190 0.000000 1.132637
v -0.200831 0.000000 -1.435707
v -0.203190 4.785003 1.766248
v -0.200831 5.222941 -1.435707
v 0.140499 0.000000 0.940947
v 0.140499 4.582380 1.473915
v 0.142857 4.950755 -1.193696
v 0.142857 0.000000 -1.193696
v -0.173539 0.000000 0.940947
v -0.173539 4.582380 1.473915
v -0.171181 4.950755 -1.193696
v -0.171181 0.000000 -1.193696
vt 0.671989 0.819954
vt 0.942913 0.819878
vt 0.942908 0.800513
vt 0.671983 0.800588
vt 0.504350 0.819878
vt 0.504345 0.800512
vt 0.253975 0.819948
vt 0.253970 0.800582
vt 0.543535 0.981047
vt 0.543541 0.962403
vt 0.249637 0.962313
vt 0.249631 0.980956
vt 0.703405 0.980956
vt 0.703411 0.962313
vt 0.977280 0.981041
vt 0.977286 0.962397
vt 0.478185 0.842186
vt 0.478879 0.851951
vt 0.687940 0.837437
vt 0.698739 0.826874
vt 0.690410 0.956455
vt 0.680855 0.945405
vt 0.485722 0.940143
vt 0.486380 0.947903
vt 0.463945 0.835037
vt 0.455126 0.845508
vt 0.462913 0.946353
vt 0.473124 0.956072
vt 0.267245 0.935825
vt 0.266698 0.944965
vt 0.273222 0.846002
vt 0.272687 0.853268
vn 0.0000 0.0000 -1.0000
vn 0.0000 0.9908 0.1355
vn 0.0000 -0.1313 0.9913
vn 0.0000 0.0000 1.0000
vn 0.0000 -0.9906 -0.1368
vn 0.0000 0.1155 -0.9933
vn -0.9926 0.0000 0.1216
vn -0.9916 0.0160 -0.1282
vn 0.9924 -0.1222 -0.0160
vn -0.9924 -0.1221 -0.0176
vn 0.9926 0.0000 0.1216
vn 0.9916 0.0160 -0.1282
usemtl MUR
s off
f 4/1/1 2/2/1 6/3/1 8/4/1
f 3/5/2 4/1/2 8/4/2 7/6/2
f 1/7/3 3/5/3 7/6/3 5/8/3
f 11/9/4 15/10/4 16/11/4 12/12/4
f 10/13/5 14/14/5 15/10/5 11/9/5
f 9/15/6 13/16/6 14/14/6 10/13/6
f 6/17/7 16/18/7 15/19/7 8/20/7
f 7/21/8 14/22/8 13/23/8 5/24/8
f 3/25/9 10/26/9 11/27/9 4/28/9
f 8/20/10 15/19/10 14/22/10 7/21/10
f 4/28/11 11/27/11 12/29/11 2/30/11
f 1/31/12 9/32/12 10/26/12 3/25/12
